<mxfile host="app.diagrams.net" modified="2021-08-03T06:15:55.638Z" agent="5.0 (Macintosh; Intel Mac OS X 10_15_7) AppleWebKit/537.36 (KHTML, like Gecko) Chrome/92.0.4515.107 Safari/537.36" etag="QKP2B-AhN0FCW12F-sNT" version="14.9.2" type="github">
  <diagram id="mZdlwU7jlDLjAiMPSqdT" name="Page-1">
    <mxGraphModel dx="946" dy="614" grid="1" gridSize="10" guides="1" tooltips="1" connect="1" arrows="1" fold="1" page="1" pageScale="1" pageWidth="827" pageHeight="1169" math="0" shadow="0">
      <root>
        <mxCell id="0" />
        <mxCell id="1" parent="0" />
        <mxCell id="q9cqNyUcdMTlX4wkFxrB-11" value="Lead" style="rounded=0;whiteSpace=wrap;html=1;" vertex="1" parent="1">
          <mxGeometry x="70" y="200" width="80" height="80" as="geometry" />
        </mxCell>
        <mxCell id="q9cqNyUcdMTlX4wkFxrB-13" value="Customer" style="whiteSpace=wrap;html=1;aspect=fixed;" vertex="1" parent="1">
          <mxGeometry x="380" y="200" width="80" height="80" as="geometry" />
        </mxCell>
        <mxCell id="q9cqNyUcdMTlX4wkFxrB-14" value="My Insurance Club" style="rounded=0;whiteSpace=wrap;html=1;" vertex="1" parent="1">
          <mxGeometry x="470" y="30" width="120" height="60" as="geometry" />
        </mxCell>
        <mxCell id="q9cqNyUcdMTlX4wkFxrB-16" value="Product" style="whiteSpace=wrap;html=1;aspect=fixed;" vertex="1" parent="1">
          <mxGeometry x="520" y="200" width="80" height="80" as="geometry" />
        </mxCell>
        <mxCell id="q9cqNyUcdMTlX4wkFxrB-17" value="Partners" style="whiteSpace=wrap;html=1;aspect=fixed;" vertex="1" parent="1">
          <mxGeometry x="660" y="200" width="80" height="80" as="geometry" />
        </mxCell>
        <mxCell id="q9cqNyUcdMTlX4wkFxrB-18" value="User" style="whiteSpace=wrap;html=1;aspect=fixed;" vertex="1" parent="1">
          <mxGeometry x="230" y="200" width="80" height="80" as="geometry" />
        </mxCell>
        <mxCell id="q9cqNyUcdMTlX4wkFxrB-30" value="CRM" style="whiteSpace=wrap;html=1;aspect=fixed;" vertex="1" parent="1">
          <mxGeometry x="800" y="200" width="80" height="80" as="geometry" />
        </mxCell>
        <mxCell id="q9cqNyUcdMTlX4wkFxrB-31" value="Assets" style="whiteSpace=wrap;html=1;aspect=fixed;" vertex="1" parent="1">
          <mxGeometry x="920" y="200" width="80" height="80" as="geometry" />
        </mxCell>
      </root>
    </mxGraphModel>
  </diagram>
</mxfile>
